<svg height="512" viewBox="0 0 64 64" width="512" xmlns="http://www.w3.org/2000/svg"><g id="Search_engine" data-name="Search engine"><path d="m3 15h54a0 0 0 0 1 0 0v38a2 2 0 0 1 -2 2h-50a2 2 0 0 1 -2-2v-38a0 0 0 0 1 0 0z" fill="#ffcd00"/><path d="m4.841 54.984c.053 0 .1.016.159.016h50a2 2 0 0 0 2-2v-38c0 21.9-23.254 39.644-52.159 39.984z" fill="#ddb200"/><path d="m11 21h38a0 0 0 0 1 0 0v7a1 1 0 0 1 -1 1h-37a0 0 0 0 1 0 0v-8a0 0 0 0 1 0 0z" fill="#ed1c24"/><path d="m57 5v10h-54v-10a2.006 2.006 0 0 1 2-2h50a2.006 2.006 0 0 1 2 2z" fill="#2488ff"/><path d="m29 7h24v4h-24z" fill="#f1f2f2"/><circle cx="9" cy="9" fill="#d80027" r="2"/><circle cx="16" cy="9" fill="#ff9811" r="2"/><circle cx="23" cy="9" fill="#5eac24" r="2"/><path d="m51.143 48.313.007.007-.007-.007-2.83 2.83.007.007-.007-.007-1.413 1.413 7.657 7.657a4 4 0 1 0 5.657-5.657l-3.214-3.213-4.444-4.443z" fill="#d80027"/><path d="m48.31 51.15-3.36-3.37a12.05 12.05 0 0 0 2.85-2.85l3.39 3.34z" fill="#2488ff"/><path d="m38 50a12 12 0 1 0 -12-12 12 12 0 0 0 12 12zm0-21a9 9 0 1 1 -9 9 9.01 9.01 0 0 1 9-9z" fill="#00479b"/><circle cx="38" cy="38" fill="#96c8ef" r="9"/><g fill="#231f20"><path d="m53 12h-24a1 1 0 0 1 -1-1v-4a1 1 0 0 1 1-1h24a1 1 0 0 1 1 1v4a1 1 0 0 1 -1 1zm-23-2h22v-2h-22z"/><path d="m9 12a3 3 0 1 1 3-3 3 3 0 0 1 -3 3zm0-4a1 1 0 1 0 1 1 1 1 0 0 0 -1-1z"/><path d="m16 12a3 3 0 1 1 3-3 3 3 0 0 1 -3 3zm0-4a1 1 0 1 0 1 1 1 1 0 0 0 -1-1z"/><path d="m23 12a3 3 0 1 1 3-3 3 3 0 0 1 -3 3zm0-4a1 1 0 1 0 1 1 1 1 0 0 0 -1-1z"/><path d="m25 30h-14a1 1 0 0 1 -1-1v-8a1 1 0 0 1 1-1h38a1 1 0 0 1 1 1v6a1 1 0 0 1 -2 0v-5h-36v6h13a1 1 0 0 1 0 2z"/><path d="m38 28a10 10 0 1 0 10 10 10.011 10.011 0 0 0 -10-10zm0 18a8 8 0 1 1 8-8 8.009 8.009 0 0 1 -8 8z"/><path d="m60.92 53.849-2.92-2.92v-45.929a3 3 0 0 0 -3-3h-50a3 3 0 0 0 -3 3v48a3 3 0 0 0 3 3h43.929l4.921 4.92a5 5 0 1 0 7.07-7.071zm-56.92-48.849a1 1 0 0 1 1-1h50a1 1 0 0 1 1 1v9h-52zm1 49a1 1 0 0 1 -1-1v-37h52v32.929l-2.736-2.737a1 1 0 0 0 -1.414 0l-.707.707-2.09-2.09a13.048 13.048 0 1 0 -4.244 4.244l2.09 2.09-.707.706a1 1 0 0 0 0 1.414l.737.737zm44-16a11 11 0 1 1 -11-11 11.013 11.013 0 0 1 11 11zm-2.553 9.862a13.047 13.047 0 0 0 1.415-1.416l1.867 1.867-1.416 1.416zm13.059 11.644a3.072 3.072 0 0 1 -4.242 0l-6.951-6.95 4.244-4.243 6.949 6.95a3 3 0 0 1 0 4.243z"/><path d="m22 35h-8a1 1 0 0 1 0-2h8a1 1 0 0 1 0 2z"/><path d="m22 39h-8a1 1 0 0 1 0-2h8a1 1 0 0 1 0 2z"/><path d="m22 43h-8a1 1 0 0 1 0-2h8a1 1 0 0 1 0 2z"/></g></g></svg>