<svg height="512" viewBox="0 0 64 64" width="512" xmlns="http://www.w3.org/2000/svg"><g id="Send_mail" data-name="Send mail"><path d="m3 13h58a0 0 0 0 1 0 0v38a2 2 0 0 1 -2 2h-54a2 2 0 0 1 -2-2v-38a0 0 0 0 1 0 0z" fill="#ffdaaa"/><path d="m25 53h34a2 2 0 0 0 2-2v-34a36 36 0 0 1 -36 36z" fill="#ffc477"/><path d="m36.261 61 7.063-7.011-4.454-1.337z" fill="#e54820"/><path d="m61 5v8h-58v-8a2.006 2.006 0 0 1 2-2h54a2.006 2.006 0 0 1 2 2z" fill="#005ece"/><path d="m55 6h-28a2 2 0 0 0 0 4h28a2 2 0 0 0 0-4z" fill="#ffcd00"/><g fill="#57a4ff"><circle cx="8" cy="8" r="1"/><circle cx="14" cy="8" r="1"/><circle cx="20" cy="8" r="1"/></g><path d="m7 17v14l7.779-6.999z" fill="#ffcd00"/><path d="m19.221 24-1.552 1.4a1 1 0 0 1 -1.338 0l-1.552-1.4-7.779 7h20z" fill="#ebbf00"/><path d="m27 31v-14l-7.779 7.001z" fill="#ffcd00"/><path d="m14.78 24 1.552 1.4a1 1 0 0 0 1.338 0l1.551-1.4 7.779-7h-20l7.779 7z" fill="#ffd422"/><path d="m26.87 47.956 7.304 2.609 22.435-13.043-17.739 15.13 4.454 1.337.001-.001-.001.001 5.98 1.794 7.826-18.783z" fill="#ff704b"/><path d="m56.609 37.522-22.435 13.043 2.087 10.435 2.609-8.348z" fill="#ff6037"/><path d="m57.854 36.31a1 1 0 0 0 -1.064-.25l-30.262 10.956a1 1 0 0 0 .005 1.882l6.772 2.419 1.975 9.883a1.022 1.022 0 0 0 .037.1.963.963 0 0 0 .052.135.928.928 0 0 0 .134.2.848.848 0 0 0 .048.074c.008.008.02.011.029.019a1 1 0 0 0 .3.2l.015.006a.99.99 0 0 0 .318.072h.053a.986.986 0 0 0 .346-.067c.033-.012.061-.033.094-.048a1.02 1.02 0 0 0 .214-.142c.015-.014.035-.018.05-.033l6.642-6.593 5.411 1.624a1 1 0 0 0 1.21-.574l7.826-18.782a1 1 0 0 0 -.205-1.081zm-19.634 15.582c-.022.018-.031.044-.051.064a1.014 1.014 0 0 0 -.121.154.981.981 0 0 0 -.1.177c-.01.024-.029.042-.037.067l-1.441 4.612-1.179-5.9 12.21-7.1zm9.78-10.523-13.93 8.1-4.246-1.519zm-9.583 16.082 1.111-3.557 1.9.57zm10.312-2.885-7.814-2.344 13.636-11.63z"/><path d="m59 2h-54a3 3 0 0 0 -3 3v46a3 3 0 0 0 3 3h8a1 1 0 0 0 0-2h-8a1 1 0 0 1 -1-1v-37h56v37a1 1 0 0 1 -1 1h-5a1 1 0 0 0 0 2h5a3 3 0 0 0 3-3v-46a3 3 0 0 0 -3-3zm-55 10v-7a1 1 0 0 1 1-1h54a1 1 0 0 1 1 1v7z"/><path d="m55 5h-28a3 3 0 0 0 0 6h28a3 3 0 0 0 0-6zm0 4h-28a1 1 0 0 1 0-2h28a1 1 0 0 1 0 2z"/><circle cx="8" cy="8" r="2"/><circle cx="14" cy="8" r="2"/><circle cx="20" cy="8" r="2"/><path d="m28 31v-14a1 1 0 0 0 -1-1h-20a1 1 0 0 0 -1 1v14a1 1 0 0 0 1 1h20a1 1 0 0 0 1-1zm-11-6.345-7.394-6.655h14.788zm-3.716-.655-5.284 4.755v-9.51zm1.495 1.345.883.795a1.993 1.993 0 0 0 2.676 0l.883-.795 5.173 4.655h-14.788zm5.937-1.345 5.284-4.755v9.51z"/><path d="m39 19h-8a1 1 0 0 0 0 2h8a7 7 0 0 1 0 14h-17.5a9.5 9.5 0 0 0 0 19h8.5a1 1 0 0 0 0-2h-8.5a7.5 7.5 0 0 1 0-15h17.5a9 9 0 0 0 0-18z"/></g></svg>