<?xml version="1.0"?>
<svg xmlns="http://www.w3.org/2000/svg" fill="#392EEE" viewBox="0 0 64 64" width="512" height="512"><g id="Search_engine" data-name="Search engine"><path d="M53,12H29a1,1,0,0,1-1-1V7a1,1,0,0,1,1-1H53a1,1,0,0,1,1,1v4A1,1,0,0,1,53,12ZM30,10H52V8H30Z"/><path d="M9,12a3,3,0,1,1,3-3A3,3,0,0,1,9,12ZM9,8a1,1,0,1,0,1,1A1,1,0,0,0,9,8Z"/><path d="M16,12a3,3,0,1,1,3-3A3,3,0,0,1,16,12Zm0-4a1,1,0,1,0,1,1A1,1,0,0,0,16,8Z"/><path d="M23,12a3,3,0,1,1,3-3A3,3,0,0,1,23,12Zm0-4a1,1,0,1,0,1,1A1,1,0,0,0,23,8Z"/><path d="M25,30H11a1,1,0,0,1-1-1V21a1,1,0,0,1,1-1H49a1,1,0,0,1,1,1v6a1,1,0,0,1-2,0V22H12v6H25a1,1,0,0,1,0,2Z"/><path d="M38,28A10,10,0,1,0,48,38,10.011,10.011,0,0,0,38,28Zm0,18a8,8,0,1,1,8-8A8.009,8.009,0,0,1,38,46Z"/><path d="M60.92,53.849,58,50.929V5a3,3,0,0,0-3-3H5A3,3,0,0,0,2,5V53a3,3,0,0,0,3,3H48.929l4.921,4.92a5,5,0,1,0,7.07-7.071ZM4,5A1,1,0,0,1,5,4H55a1,1,0,0,1,1,1v9H4ZM5,54a1,1,0,0,1-1-1V16H56V48.929l-2.736-2.737a1,1,0,0,0-1.414,0l-.707.707-2.09-2.09a13.048,13.048,0,1,0-4.244,4.244l2.09,2.09-.707.706a1,1,0,0,0,0,1.414l.737.737ZM49,38A11,11,0,1,1,38,27,11.013,11.013,0,0,1,49,38Zm-2.553,9.862a13.047,13.047,0,0,0,1.415-1.416l1.867,1.867-1.416,1.416ZM59.506,59.506a3.072,3.072,0,0,1-4.242,0l-6.951-6.95,4.244-4.243,6.949,6.95A3,3,0,0,1,59.506,59.506Z"/><path d="M22,35H14a1,1,0,0,1,0-2h8a1,1,0,0,1,0,2Z"/><path d="M22,39H14a1,1,0,0,1,0-2h8a1,1,0,0,1,0,2Z"/><path d="M22,43H14a1,1,0,0,1,0-2h8a1,1,0,0,1,0,2Z"/></g></svg>
